# xmcd
#
# Track frame offsets:
#	150
#	17846
#	43467
#	58927
#	78004
#	94784
#	109653
#	125278
#	142926
#	160140
#	173263
#	186987
#	204998
#	222682
#	242871
#	258254
#	274551
#	294046
#	311433
#
# Disc length: 4362 seconds
#
# Revision: 0
# Processed by: cddbd v1.5.2PL0 Copyright (c) Steve Scherf et al.
# Submitted via: dBpowerAMP V4.0
#
DISCID=06110813
DTITLE=Murray McLauchlan - Songs From The Street [CDTwo)
DYEAR=1900
DGENRE=Country
TTITLE0=On The Boulevard
TTITLE1=Train Song
TTITLE2=As Lonely As You
TTITLE3=Hard Rock Town
TTITLE4=Whispering Rain
TTITLE5=Little Dreamer
TTITLE6=Playin' Your Emotions
TTITLE7=Try Walkin' Away
TTITLE8=Into  A Mystery
TTITLE9=Don't Put Your Faith In Men
TTITLE10=If The Wind Could Blow My Troubles Away
TTITLE11=Never Did Like That Train
TTITLE12=Red River Flood
TTITLE13=Out Past The Timberline
TTITLE14=Love With A Capital L
TTITLE15=Swinging On A Star
TTITLE16=Burned Out Car
TTITLE17=No Change In Me
TTITLE18=Path Of The Moon
EXTD=
EXTT0=
EXTT1=
EXTT2=
EXTT3=
EXTT4=
EXTT5=
EXTT6=
EXTT7=
EXTT8=
EXTT9=
EXTT10=
EXTT11=
EXTT12=
EXTT13=
EXTT14=
EXTT15=
EXTT16=
EXTT17=
EXTT18=
PLAYORDER=
